<svg width="16" height="20" viewBox="0 0 16 20" fill="none" xmlns="http://www.w3.org/2000/svg">
<path d="M14.5 18.4782L7.75 13.6568L1 18.4782V3.04966C1 2.53818 1.20319 2.04764 1.56487 1.68596C1.92654 1.32428 2.41708 1.12109 2.92857 1.12109H12.5714C13.0829 1.12109 13.5735 1.32428 13.9351 1.68596C14.2968 2.04764 14.5 2.53818 14.5 3.04966V18.4782Z" fill="#3B3B58" stroke="#3B3B58" stroke-width="1.92857" stroke-linecap="round" stroke-linejoin="round"/>
<g clip-path="url(#clip0)">
<path d="M10.4294 7.55549L8.71418 7.32283L7.94742 5.872C7.92648 5.83228 7.89203 5.80012 7.84947 5.78058C7.74273 5.73139 7.61302 5.77238 7.55965 5.872L6.7929 7.32283L5.07766 7.55549C5.03037 7.56179 4.98713 7.5826 4.95403 7.61413C4.91401 7.65252 4.89196 7.70417 4.89272 7.75772C4.89348 7.81128 4.91699 7.86236 4.95808 7.89975L6.19908 9.02901L5.90589 10.6236C5.89901 10.6607 5.90341 10.6988 5.91858 10.7337C5.93376 10.7686 5.9591 10.7988 5.99173 10.8209C6.02437 10.8431 6.06299 10.8562 6.10322 10.8589C6.14345 10.8616 6.18368 10.8537 6.21935 10.8361L7.75354 10.0832L9.28773 10.8361C9.32961 10.8569 9.37825 10.8638 9.42487 10.8563C9.54241 10.8373 9.62145 10.7333 9.60119 10.6236L9.30799 9.02901L10.549 7.89975C10.5828 7.86886 10.6051 7.8285 10.6118 7.78437C10.6301 7.67403 10.5476 7.57188 10.4294 7.55549Z" fill="white"/>
</g>
<defs>
<clipPath id="clip0">
<rect width="6.9177" height="5.53416" fill="white" transform="translate(4.2948 5.32812)"/>
</clipPath>
</defs>
</svg>
