<svg width="24" height="24" viewBox="0 0 24 24" fill="none" xmlns="http://www.w3.org/2000/svg">
<rect width="24" height="24" fill="white"/>
<mask id="path-1-inside-1" fill="white">
<path d="M12.0001 2C10.6869 2 9.38653 2.25866 8.17328 2.7612C6.96002 3.26375 5.85763 4.00035 4.92904 4.92893C3.05368 6.8043 2.00011 9.34784 2.00011 12C1.99137 14.3091 2.7909 16.5485 4.26011 18.33L2.26011 20.33C2.12135 20.4706 2.02736 20.6492 1.98998 20.8432C1.95261 21.0372 1.97353 21.2379 2.05011 21.42C2.13317 21.5999 2.26781 21.7511 2.43696 21.8544C2.6061 21.9577 2.80211 22.0083 3.00011 22H12.0001C14.6523 22 17.1958 20.9464 19.0712 19.0711C20.9465 17.1957 22.0001 14.6522 22.0001 12C22.0001 9.34784 20.9465 6.8043 19.0712 4.92893C17.1958 3.05357 14.6523 2 12.0001 2ZM12.0001 20H5.41011L6.34011 19.07C6.52636 18.8826 6.6309 18.6292 6.6309 18.365C6.6309 18.1008 6.52636 17.8474 6.34011 17.66C5.0307 16.352 4.21528 14.6305 4.0328 12.7888C3.85032 10.947 4.31205 9.09901 5.33934 7.55952C6.36662 6.02004 7.8959 4.88436 9.66663 4.34597C11.4374 3.80759 13.34 3.8998 15.0503 4.60691C16.7607 5.31402 18.173 6.59227 19.0465 8.22389C19.9201 9.85551 20.201 11.7395 19.8412 13.555C19.4815 15.3705 18.5034 17.005 17.0736 18.1802C15.6439 19.3554 13.8509 19.9985 12.0001 20Z"/>
</mask>
<path d="M12.0001 2C10.6869 2 9.38653 2.25866 8.17328 2.7612C6.96002 3.26375 5.85763 4.00035 4.92904 4.92893C3.05368 6.8043 2.00011 9.34784 2.00011 12C1.99137 14.3091 2.7909 16.5485 4.26011 18.33L2.26011 20.33C2.12135 20.4706 2.02736 20.6492 1.98998 20.8432C1.95261 21.0372 1.97353 21.2379 2.05011 21.42C2.13317 21.5999 2.26781 21.7511 2.43696 21.8544C2.6061 21.9577 2.80211 22.0083 3.00011 22H12.0001C14.6523 22 17.1958 20.9464 19.0712 19.0711C20.9465 17.1957 22.0001 14.6522 22.0001 12C22.0001 9.34784 20.9465 6.8043 19.0712 4.92893C17.1958 3.05357 14.6523 2 12.0001 2ZM12.0001 20H5.41011L6.34011 19.07C6.52636 18.8826 6.6309 18.6292 6.6309 18.365C6.6309 18.1008 6.52636 17.8474 6.34011 17.66C5.0307 16.352 4.21528 14.6305 4.0328 12.7888C3.85032 10.947 4.31205 9.09901 5.33934 7.55952C6.36662 6.02004 7.8959 4.88436 9.66663 4.34597C11.4374 3.80759 13.34 3.8998 15.0503 4.60691C16.7607 5.31402 18.173 6.59227 19.0465 8.22389C19.9201 9.85551 20.201 11.7395 19.8412 13.555C19.4815 15.3705 18.5034 17.005 17.0736 18.1802C15.6439 19.3554 13.8509 19.9985 12.0001 20Z" fill="#3B3B58"/>
<path d="M2.00011 12L7.00007 12.0189L7.00011 12.0095V12H2.00011ZM4.26011 18.33L7.79564 21.8655L11.0078 18.6533L8.11751 15.1487L4.26011 18.33ZM2.26011 20.33L-1.27542 16.7945L-1.28723 16.8063L-1.29896 16.8182L2.26011 20.33ZM2.05011 21.42L-2.55896 23.3582L-2.52561 23.4375L-2.48956 23.5156L2.05011 21.42ZM3.00011 22V17H2.8949L2.78978 17.0044L3.00011 22ZM5.41011 20L1.87458 16.4645L-6.66096 25H5.41011V20ZM6.34011 19.07L9.87564 22.6055L9.8809 22.6003L9.88615 22.595L6.34011 19.07ZM6.6309 18.365H11.6309H6.6309ZM6.34011 17.66L9.88615 14.135L9.87992 14.1287L9.87368 14.1225L6.34011 17.66ZM12.0001 -3C10.0303 -3 8.07974 -2.61201 6.25986 -1.85819L10.0867 7.3806C10.6933 7.12933 11.3435 7 12.0001 7V-3ZM6.25986 -1.85819C4.43997 -1.10437 2.78639 0.000519872 1.39351 1.3934L8.46458 8.46447C8.92887 8.00017 9.48007 7.63188 10.0867 7.3806L6.25986 -1.85819ZM1.39351 1.3934C-1.41954 4.20644 -2.99989 8.02175 -2.99989 12H7.00011C7.00011 10.6739 7.52689 9.40215 8.46458 8.46447L1.39351 1.3934ZM-2.99985 11.9811C-3.01302 15.4576 -1.80927 18.8292 0.402714 21.5113L8.11751 15.1487C7.39107 14.2679 6.99575 13.1607 7.00007 12.0189L-2.99985 11.9811ZM0.724577 14.7945L-1.27542 16.7945L5.79564 23.8655L7.79564 21.8655L0.724577 14.7945ZM-1.29896 16.8182C-2.1315 17.6619 -2.69548 18.7333 -2.91973 19.8973L6.89969 21.7891C6.7502 22.5651 6.37421 23.2793 5.81918 23.8418L-1.29896 16.8182ZM-2.91973 19.8973C-3.14397 21.0612 -3.01844 22.2655 -2.55896 23.3582L6.65918 19.4818C6.9655 20.2103 7.04919 21.0131 6.89969 21.7891L-2.91973 19.8973ZM-2.48956 23.5156C-1.99121 24.5951 -1.18333 25.5023 -0.168476 26.1219L5.04239 17.5869C5.71896 17.9999 6.25754 18.6047 6.58978 19.3244L-2.48956 23.5156ZM-0.168476 26.1219C0.846382 26.7415 2.02245 27.0456 3.21044 26.9956L2.78978 17.0044C3.58177 16.9711 4.36582 17.1738 5.04239 17.5869L-0.168476 26.1219ZM3.00011 27H12.0001V17H3.00011V27ZM12.0001 27C15.9784 27 19.7937 25.4196 22.6067 22.6066L15.5356 15.5355C14.598 16.4732 13.3262 17 12.0001 17V27ZM22.6067 22.6066C25.4198 19.7936 27.0001 15.9782 27.0001 12H17.0001C17.0001 13.3261 16.4733 14.5979 15.5356 15.5355L22.6067 22.6066ZM27.0001 12C27.0001 8.02175 25.4198 4.20644 22.6067 1.3934L15.5356 8.46447C16.4733 9.40215 17.0001 10.6739 17.0001 12H27.0001ZM22.6067 1.3934C19.7937 -1.41965 15.9784 -3 12.0001 -3V7C13.3262 7 14.598 7.52678 15.5356 8.46447L22.6067 1.3934ZM12.0001 15H5.41011V25H12.0001V15ZM8.94564 23.5355L9.87564 22.6055L2.80458 15.5345L1.87458 16.4645L8.94564 23.5355ZM9.88615 22.595C11.0037 21.4708 11.6309 19.9501 11.6309 18.365H1.6309C1.6309 17.3083 2.04907 16.2945 2.79407 15.545L9.88615 22.595ZM11.6309 18.365C11.6309 16.7799 11.0037 15.2592 9.88615 14.135L2.79407 21.185C2.04907 20.4355 1.6309 19.4217 1.6309 18.365H11.6309ZM9.87368 14.1225C9.38265 13.632 9.07687 12.9865 9.00844 12.2958L-0.942835 13.2818C-0.6463 16.2746 0.678744 19.0721 2.80654 21.1975L9.87368 14.1225ZM9.00844 12.2958C8.94001 11.6051 9.11316 10.9121 9.49839 10.3348L1.18029 4.78422C-0.489051 7.28588 -1.23937 10.289 -0.942835 13.2818L9.00844 12.2958ZM9.49839 10.3348C9.88362 9.75752 10.4571 9.33164 11.1211 9.12974L8.21213 -0.437795C5.3347 0.437081 2.84962 2.28256 1.18029 4.78422L9.49839 10.3348ZM11.1211 9.12974C11.7851 8.92785 12.4986 8.96243 13.14 9.22759L16.9606 -0.0137672C14.1813 -1.16282 11.0896 -1.31267 8.21213 -0.437795L11.1211 9.12974ZM13.14 9.22759C13.7814 9.49276 14.311 9.97211 14.6386 10.584L23.4545 5.86382C22.0349 3.21244 19.74 1.13528 16.9606 -0.0137672L13.14 9.22759ZM14.6386 10.584C14.9662 11.1958 15.0715 11.9023 14.9366 12.5831L24.7459 14.5269C25.3305 11.5768 24.8741 8.5152 23.4545 5.86382L14.6386 10.584ZM14.9366 12.5831C14.8017 13.2639 14.4349 13.8769 13.8988 14.3176L20.2485 22.0429C22.5719 20.1332 24.1613 17.477 24.7459 14.5269L14.9366 12.5831ZM13.8988 14.3176C13.3626 14.7583 12.6902 14.9995 11.9962 15L12.004 25C15.0115 24.9976 17.9252 23.9526 20.2485 22.0429L13.8988 14.3176Z" fill="#3B3B58" mask="url(#path-1-inside-1)"/>
<path d="M9 3.5L5 6.5L3 10.5V14.5L4.5 17L5 18.5V21H7H10.5L14.5 20L18 18L20 16L21.5 12L20 9L17.5 5L13.5 3L9 3.5Z" fill="#3B3B58" stroke="#3B3B58"/>
</svg>
