<svg width="176" height="176" viewBox="0 0 176 176" fill="none" xmlns="http://www.w3.org/2000/svg">
<circle cx="87.5" cy="88.5" r="83.5" fill="#3B3B58"/>
<path d="M88 1.19922C40.9442 1.19922 1.19727 40.9462 1.19727 88.002C1.19727 135.058 40.9442 174.805 88 174.805C135.056 174.805 174.803 135.058 174.803 88.002C174.803 40.9462 135.056 1.19922 88 1.19922ZM88 44.6006C102.991 44.6006 114.041 55.6419 114.041 70.6414C114.041 85.6409 102.991 96.6822 88 96.6822C73.0178 96.6822 61.9592 85.6409 61.9592 70.6414C61.9592 55.6419 73.0178 44.6006 88 44.6006ZM43.6785 129.424C51.4647 117.966 64.4504 110.328 79.3197 110.328H96.6803C111.558 110.328 124.535 117.966 132.321 129.424C121.228 141.299 105.491 148.764 88 148.764C70.5092 148.764 54.7719 141.299 43.6785 129.424Z" fill="#F1F5F8"/>
</svg>
