<svg fill="none" height="13" viewBox="0 0 13 13" width="13" xmlns="http://www.w3.org/2000/svg"><path d="m6.49895.262695c-3.44695 0-6.240649 2.793705-6.240649 6.240005-.000086.81955.161275 1.6311.474867 2.38829s.773272 1.44521 1.352782 2.02471c.57952.5795 1.26752 1.0392 2.02471 1.3528s1.56873.4749 2.38829.4748c3.44565 0 6.24005-2.79365 6.24005-6.2406 0-3.4463-2.7944-6.240005-6.24005-6.240005zm.5824 2.252905c.6084 0 .78715.35295.78715.7566 0 .50375-.403.9698-1.09135.9698-.5759 0-.8502-.28925-.8333-.7683 0-.40365.33735-.9581 1.1375-.9581zm-1.5587 7.7246c-.416 0-.71955-.25285-.429-1.3611l.47645-1.96625c.08255-.3146.0962-.4407 0-.4407-.12415 0-.6643.2171-.9828.4316l-.20735-.33995c1.01075-.84435 2.17295-1.33966 2.6702-1.33966.416 0 .4849.49141.27755 1.24801l-.546 2.067c-.09685.3653-.05525.4914.0416.4914.1248 0 .533-.1508.9347-.46735l.2353.3159c-.98345.9828-2.0553 1.3611-2.47065 1.3611z" fill="#3b3b58"/></svg>