<svg width="47" height="47" viewBox="0 0 47 47" fill="none" xmlns="http://www.w3.org/2000/svg">
<g clip-path="url(#clip0)">
<path d="M44.406 46.9997C45.8384 46.9997 47 45.8383 47 44.4057V2.59351C47 1.16074 45.8384 -0.000488281 44.406 -0.000488281H2.594C1.16105 -0.000488281 0 1.16074 0 2.59351V44.4057C0 45.8383 1.16105 46.9997 2.594 46.9997H44.406" fill="#395185"/>
<path d="M32.4289 46.9997V28.7987H38.5383L39.453 21.7056H32.4289V17.1767C32.4289 15.123 32.9993 13.7235 35.9444 13.7235L39.7005 13.7218V7.37776C39.0506 7.29128 36.821 7.09814 34.2272 7.09814C28.8115 7.09814 25.1041 10.4037 25.1041 16.4745V21.7056H18.979V28.7987H25.1041V46.9997H32.4289" fill="white"/>
</g>
<defs>
<clipPath id="clip0">
<rect width="47" height="47" fill="white"/>
</clipPath>
</defs>
</svg>
