<svg width="46" height="46" viewBox="0 0 46 46" fill="none" xmlns="http://www.w3.org/2000/svg">
<path d="M45.0747 18.5675H43.2719V18.4746H23.129V27.427H35.7776C33.9323 32.6384 28.9738 36.3794 23.129 36.3794C15.7131 36.3794 9.70043 30.3667 9.70043 22.9508C9.70043 15.5349 15.7131 9.52221 23.129 9.52221C26.5522 9.52221 29.6665 10.8136 32.0378 12.923L38.3682 6.59254C34.371 2.86723 29.0242 0.569824 23.129 0.569824C10.7691 0.569824 0.748047 10.5909 0.748047 22.9508C0.748047 35.3107 10.7691 45.3318 23.129 45.3318C35.4889 45.3318 45.51 35.3107 45.51 22.9508C45.51 21.4501 45.3555 19.9853 45.0747 18.5675Z" fill="#FFC107"/>
<path d="M3.3291 12.5336L10.6824 17.9263C12.672 13.0002 17.4907 9.52221 23.1295 9.52221C26.5527 9.52221 29.667 10.8136 32.0383 12.923L38.3687 6.59254C34.3715 2.86723 29.0247 0.569824 23.1295 0.569824C14.533 0.569824 7.07791 5.42314 3.3291 12.5336Z" fill="#FF3D00"/>
<path d="M23.1292 45.3307C28.9102 45.3307 34.1631 43.1183 38.1346 39.5206L31.2077 33.659C28.8851 35.4253 26.0471 36.3806 23.1292 36.3783C17.308 36.3783 12.3651 32.6664 10.503 27.4863L3.20459 33.1095C6.90864 40.3576 14.4309 45.3307 23.1292 45.3307Z" fill="#4CAF50"/>
<path d="M45.075 18.5646H43.2723V18.4717H23.1294V27.4241H35.778C34.8953 29.9043 33.3053 32.0717 31.2044 33.6583L31.2078 33.656L38.1347 39.5176C37.6446 39.963 45.5104 34.1384 45.5104 22.9479C45.5104 21.4472 45.3559 19.9824 45.075 18.5646Z" fill="#1976D2"/>
</svg>
