<svg width="46" height="47" viewBox="0 0 46 47" fill="none" xmlns="http://www.w3.org/2000/svg">
<g clip-path="url(#clip0)">
<path d="M39.1863 40.0538H32.3826V29.1454C32.3826 26.5442 32.3294 23.2014 28.8248 23.2014C25.277 23.2014 24.7365 26.0228 24.7365 28.953V40.0523H17.9242V17.623H24.4677V20.6824H24.5554C25.4696 18.9155 27.6934 17.0576 31.0112 17.0576C37.9126 17.0576 39.1934 21.7003 39.1934 27.7369V40.0523L39.1863 40.0538ZM10.2278 14.5578C9.70783 14.558 9.19292 14.4533 8.71258 14.2499C8.23224 14.0464 7.79589 13.7482 7.42855 13.3722C7.0612 12.9961 6.77007 12.5498 6.57182 12.0586C6.37358 11.5675 6.27212 11.0412 6.27325 10.5099C6.2741 9.71023 6.507 8.92878 6.94249 8.26435C7.37799 7.59992 7.99652 7.08235 8.71989 6.77707C9.44326 6.47179 10.239 6.39252 11.0064 6.54927C11.7739 6.70603 12.4786 7.09177 13.0316 7.65773C13.5845 8.22369 13.9607 8.94444 14.1127 9.72887C14.2648 10.5133 14.1857 11.3262 13.8856 12.0647C13.5855 12.8033 13.0779 13.4343 12.4268 13.878C11.7757 14.3218 11.0105 14.5583 10.2278 14.5578V14.5578ZM13.6404 40.0538H6.81375V17.6245H13.6404V40.0538ZM42.6017 -0.000488281H3.3925C1.51944 -0.000488281 0 1.51379 0 3.38792V43.6126C0 45.4867 1.51944 47.001 3.3925 47.001H42.5946C44.4648 47.001 46 45.4867 46 43.6126V3.38792C46 1.51379 44.4648 -0.000488281 42.5946 -0.000488281H42.6017Z" fill="#0077B5"/>
</g>
<defs>
<clipPath id="clip0">
<rect width="46" height="47" fill="white"/>
</clipPath>
</defs>
</svg>
