<svg width="20" height="23" viewBox="0 0 20 23" fill="none" xmlns="http://www.w3.org/2000/svg">
<path d="M16 7.77832C16 6.18702 15.3679 4.6609 14.2426 3.53568C13.1174 2.41046 11.5913 1.77832 10 1.77832C8.4087 1.77832 6.88258 2.41046 5.75736 3.53568C4.63214 4.6609 4 6.18702 4 7.77832C4 14.7783 1 16.7783 1 16.7783H19C19 16.7783 16 14.7783 16 7.77832Z" stroke="#2C363F" stroke-width="1.5" stroke-linecap="round" stroke-linejoin="round"/>
<path d="M11.73 20.7783C11.5542 21.0814 11.3019 21.333 10.9982 21.5079C10.6946 21.6827 10.3504 21.7748 10 21.7748C9.64964 21.7748 9.30541 21.6827 9.00179 21.5079C8.69818 21.333 8.44583 21.0814 8.27002 20.7783" stroke="#2C363F" stroke-width="1.5" stroke-linecap="round" stroke-linejoin="round"/>
<circle cx="15" cy="4.77832" r="3.75" fill="#FA163F" stroke="white" stroke-width="0.5"/>
</svg>
