<svg width="17" height="17" viewBox="0 0 17 17" fill="none" xmlns="http://www.w3.org/2000/svg">
<g clip-path="url(#clip0)">
<path d="M3.70577 14.875L-7.43094e-07 17L2.12708 13.2812L2.22678 13.2646L5.00195 10.4756L2.49267 7.95215C2.02737 7.4873 2.08276 6.96159 2.65885 6.375L5.63343 6.375L10.087 2.0918L9.88759 1.87598C9.66601 1.66569 9.55523 1.40837 9.55523 1.104C9.55523 0.799642 9.66324 0.53955 9.87928 0.32373C10.0953 0.10791 10.3557 -2.90434e-07 10.6603 -2.77117e-07C10.965 -2.63799e-07 11.2281 0.105143 11.4497 0.315429L16.6843 5.56152C16.8948 5.78288 17 6.04574 17 6.3501C17 6.65446 16.8948 6.91455 16.6843 7.13037C16.4738 7.34619 16.2162 7.4541 15.9115 7.4541C15.6069 7.4541 15.3438 7.34342 15.1222 7.12207L14.9062 6.90625L10.6188 11.3721L10.6021 14.3437C10.0261 14.9193 9.50538 14.9691 9.04008 14.4932L6.53079 11.9863L3.739 14.7754L3.70577 14.875Z" fill="#FA163F"/>
</g>
<defs>
<clipPath id="clip0">
<rect width="17" height="17" fill="white" transform="translate(17) rotate(90)"/>
</clipPath>
</defs>
</svg>
