<svg width="21" height="21" viewBox="0 0 21 21" fill="none" xmlns="http://www.w3.org/2000/svg">
<path d="M11.4595 8.96706L11.4684 1.3745C11.4684 1.04162 11.3361 0.722381 11.1007 0.487001C10.8654 0.251622 10.5461 0.119387 10.2132 0.119387C9.88037 0.119387 9.56112 0.251621 9.32574 0.487001C9.09036 0.72238 8.95813 1.04162 8.95813 1.3745L8.96697 8.96706L1.37441 8.95822C1.04153 8.95822 0.722289 9.09046 0.486909 9.32584C0.251529 9.56121 0.119294 9.88046 0.119294 10.2133C0.119294 10.5462 0.251529 10.8655 0.486909 11.1008C0.722289 11.3362 1.04153 11.4685 1.37441 11.4684L8.96697 11.4596L8.95813 19.0522C8.95745 19.2172 8.98946 19.3807 9.05229 19.5333C9.11513 19.6859 9.20755 19.8245 9.32424 19.9412C9.44092 20.0579 9.57955 20.1503 9.73213 20.2131C9.88472 20.276 10.0482 20.308 10.2132 20.3073C10.3783 20.308 10.5418 20.276 10.6944 20.2131C10.8469 20.1503 10.9856 20.0579 11.1023 19.9412C11.2189 19.8245 11.3114 19.6859 11.3742 19.5333C11.437 19.3807 11.469 19.2172 11.4684 19.0522L11.4595 11.4596L19.0521 11.4684C19.2171 11.4691 19.3806 11.4371 19.5332 11.3743C19.6858 11.3115 19.8244 11.219 19.9411 11.1023C20.0578 10.9857 20.1502 10.847 20.213 10.6944C20.2759 10.5419 20.3079 10.3783 20.3072 10.2133C20.3079 10.0483 20.2759 9.88481 20.213 9.73222C20.1502 9.57964 20.0578 9.44101 19.9411 9.32433C19.8244 9.20764 19.6858 9.11522 19.5332 9.05238C19.3806 8.98955 19.2171 8.95755 19.0521 8.95822L11.4595 8.96706Z" fill="#FA163F"/>
</svg>
