<svg width="32" height="32" viewBox="0 0 32 32" fill="none" xmlns="http://www.w3.org/2000/svg">
<path d="M27.4331 19.7383H27.4381C27.3656 18.0533 27.0751 12.3078 26.3756 9.13978C26.1736 8.22128 25.3196 7.16378 24.2381 5.82428C23.3691 4.74728 22.3841 3.52578 21.6491 2.23028C21.0611 1.19528 20.1941 0.774783 19.3316 1.10828C18.3676 1.47978 17.5856 2.77678 17.5251 4.54228C16.5436 3.45228 15.9026 3.42878 15.2271 3.86878C14.2721 4.48978 13.8506 6.36278 14.7986 8.42228C15.2486 9.40028 15.9621 9.96879 16.5906 10.4698C17.0631 10.8463 17.4706 11.1713 17.6591 11.5833L17.8386 11.9953C17.3786 11.7713 16.9491 11.5678 16.5661 11.3863C15.6356 10.9458 14.9566 10.7503 14.3626 10.7503C13.5586 10.7503 12.9776 11.1038 12.2426 11.5523C11.3196 12.1138 10.0566 12.8823 7.52556 13.5213C6.77306 13.7108 6.24706 14.0873 6.00606 14.6103C5.76506 15.1328 5.82106 15.7553 6.17256 16.4618L6.18206 16.4803C3.94006 17.0358 4.95606 19.7858 4.58506 22.4653C4.48756 23.1678 4.37906 23.7173 4.84856 24.4518C7.78356 29.0393 11.3341 30.9963 16.7201 30.9963C18.8726 30.9963 20.3916 30.9443 21.8411 30.2533C23.6511 29.3913 26.9476 25.0263 27.4376 21.4808C27.5246 20.8573 27.5191 20.2758 27.4331 19.7383ZM19.0181 2.70378C19.4301 1.50578 20.4931 1.61478 20.9311 2.41178C21.6876 3.78878 22.7106 5.16428 23.6041 6.27128C24.5236 7.40928 25.4526 8.56528 25.6051 9.25478C26.0901 11.4513 26.3151 15.4248 26.4651 17.8643C25.5116 16.6143 23.8186 15.4413 22.6726 14.6953C22.5161 13.7293 22.2161 12.0453 21.7061 9.79528C21.3666 8.28978 19.5561 7.41278 19.0746 5.31178C18.8526 4.33778 18.7716 3.42078 19.0181 2.70378ZM15.6591 7.47478C15.3981 6.94678 15.1051 4.95328 15.8451 4.40178C16.5336 3.88828 17.0851 4.89078 17.5746 5.68328C17.8041 7.14128 18.6831 8.43828 19.3016 9.17828C19.7836 9.75478 20.1996 10.2518 20.3201 10.8288C20.4696 11.5418 20.6736 12.7113 20.8181 13.5628C20.3765 13.3103 19.9306 13.0655 19.4806 12.8283C19.0798 11.8742 18.6496 10.9327 18.1906 10.0053C17.7396 9.08578 16.2941 8.75678 15.6591 7.47478ZM21.0921 28.7763C19.8026 29.3923 18.4706 29.4468 16.3716 29.4468C11.5971 29.4468 6.85606 27.0703 5.37006 23.7278C5.11756 23.1608 5.36056 22.3558 5.36056 21.2853C5.36056 18.7233 5.42306 17.2078 6.72056 17.2078C7.34356 17.2078 9.31056 18.7078 9.31056 22.5148L14.0406 24.6503C15.4206 23.2353 19.3441 21.0078 19.3441 21.0078C18.7271 20.2233 19.0606 17.9858 19.0606 17.9858C17.7671 17.8193 15.0161 16.5158 14.0681 14.6923C12.8576 15.7358 7.23506 17.6783 6.87206 15.2238C6.76456 14.4973 7.41706 14.2413 7.67406 14.1768C10.3516 13.5008 11.6456 12.7228 12.5671 12.1618C13.2386 11.7523 13.8731 11.4118 14.3961 11.4118C14.8346 11.4118 15.5136 11.6313 16.3031 12.0058C18.5466 13.0668 22.2826 14.7368 25.6051 17.6458C25.9146 17.9173 26.3081 18.5128 26.4336 18.8958C27.5661 22.3583 22.8826 27.9193 21.0921 28.7763ZM18.2731 21.0513C17.3716 21.5278 15.2671 22.6953 14.0051 23.8408L10.5051 21.5848C10.5051 19.6758 10.0906 18.2948 9.48556 17.4013C11.0171 17.3028 12.9116 16.9018 13.8731 16.3873C14.5521 17.0953 16.2796 18.7048 18.1681 18.9603C18.0971 19.5148 18.0506 20.3588 18.2731 21.0513Z" fill="#FA163F"/>
</svg>
