<svg width="40" height="40" viewBox="0 0 40 40" fill="none" xmlns="http://www.w3.org/2000/svg">
<circle cx="20" cy="20" r="20" fill="#FA163F"/>
<path d="M16.9976 7.19922C16.5528 7.19923 16.1169 7.32282 15.7383 7.55618C15.3597 7.78955 15.0534 8.12351 14.8536 8.52082L13.9096 10.3992H11.2056C10.1447 10.3992 9.12728 10.8206 8.37714 11.5708C7.62699 12.3209 7.20557 13.3384 7.20557 14.3992V27.1992C7.20557 28.2601 7.62699 29.2775 8.37714 30.0276C9.12728 30.7778 10.1447 31.1992 11.2056 31.1992H16.8056C16.8184 31.0168 16.8472 30.8312 16.8936 30.644L17.4936 28.2472C17.6792 27.5048 18.0296 26.8136 18.516 26.2264C16.9945 25.8587 15.6604 24.9465 14.7658 23.6621C13.8712 22.3776 13.478 20.81 13.6606 19.2554C13.8432 17.7008 14.5889 16.2669 15.7568 15.2248C16.9247 14.1826 18.4339 13.6043 19.9992 13.5992C21.434 13.5994 22.8271 14.0815 23.9552 14.9682C25.0832 15.8548 25.8808 17.0947 26.22 18.4888L26.5656 18.1448C27.3844 17.3261 28.4823 16.8469 29.6394 16.8033C30.7965 16.7597 31.9274 17.1549 32.8056 17.9096V14.3976C32.8056 13.3368 32.3841 12.3193 31.634 11.5692C30.8838 10.819 29.8664 10.3976 28.8056 10.3976H26.1032L25.1672 8.52562C24.9678 8.12693 24.6612 7.79166 24.282 7.55738C23.9027 7.32311 23.4657 7.19909 23.02 7.19922H16.9976Z" fill="white"/>
<path d="M24.7989 19.912C24.7817 18.9703 24.488 18.0544 23.9541 17.2785C23.4202 16.5026 22.6699 15.9008 21.7965 15.5482C20.9232 15.1957 19.9654 15.1078 19.0424 15.2956C18.1195 15.4835 17.2722 15.9387 16.6061 16.6046C15.94 17.2704 15.4845 18.1176 15.2964 19.0404C15.1082 19.9633 15.1958 20.9212 15.5481 21.7946C15.9004 22.6681 16.5019 23.4187 17.2776 23.9528C18.0534 24.4869 18.9692 24.781 19.9109 24.7984L24.8005 19.912H24.7989Z" fill="white"/>
<path d="M27.6967 19.2784L19.9687 27.0064C19.5183 27.4566 19.1986 28.0207 19.0439 28.6384L18.4439 31.0352C18.3847 31.2736 18.3882 31.5232 18.454 31.7598C18.5198 31.9964 18.6457 32.212 18.8195 32.3856C18.9932 32.5592 19.2089 32.6849 19.4456 32.7505C19.6823 32.8161 19.9319 32.8194 20.1703 32.76L22.5671 32.1616C23.1847 32.0064 23.7495 31.688 24.1991 31.2368L31.9271 23.5088C32.4809 22.9461 32.7899 22.1873 32.7867 21.3978C32.7834 20.6083 32.4683 19.8521 31.9099 19.2939C31.3516 18.7357 30.5952 18.4209 29.8057 18.418C29.0162 18.4151 28.2575 18.7243 27.6951 19.2784H27.6967Z" fill="white"/>
</svg>
