<svg width="19" height="19" viewBox="0 0 19 19" fill="none" xmlns="http://www.w3.org/2000/svg">
<path d="M9.5 18.3896C14.4675 18.3896 18.5 14.388 18.5 9.44481C18.5 4.50166 14.4675 0.5 9.5 0.5C4.53251 0.5 0.5 4.50166 0.5 9.44481C0.5 14.388 4.53251 18.3896 9.5 18.3896Z" fill="#3B3B58" stroke="#3B3B58"/>
<path d="M9.5 1C4.825 1 1 4.80016 1 9.44481C1 14.0894 4.825 17.8896 9.5 17.8896C14.175 17.8896 18 14.0894 18 9.44481C18 4.80016 14.175 1 9.5 1ZM9.5 16.2006C5.7515 16.2006 2.7 13.169 2.7 9.44481C2.7 5.72065 5.7515 2.68896 9.5 2.68896C13.2485 2.68896 16.3 5.72065 16.3 9.44481C16.3 13.169 13.2485 16.2006 9.5 16.2006ZM9.925 5.2224H8.65V10.2893L13.07 12.9916L13.75 11.8938L9.925 9.6137V5.2224Z" fill="white"/>
</svg>
