<svg width="56" height="56" viewBox="0 0 56 56" fill="none" xmlns="http://www.w3.org/2000/svg">
<path d="M28.0002 3.11115C23.0777 3.11115 18.2657 4.57085 14.1727 7.30568C10.0797 10.0405 6.88967 13.9276 5.00589 18.4755C3.12211 23.0233 2.62923 28.0276 3.58957 32.8556C4.54992 37.6836 6.92035 42.1184 10.4011 45.5991C13.8819 49.0799 18.3167 51.4503 23.1446 52.4107C27.9726 53.371 32.9769 52.8782 37.5248 50.9944C42.0726 49.1106 45.9598 45.9205 48.6946 41.8276C51.4294 37.7346 52.8891 32.9226 52.8891 28C52.8891 21.3991 50.2669 15.0685 45.5993 10.4009C40.9318 5.73336 34.6012 3.11115 28.0002 3.11115ZM44.2558 19.6467L23.8158 40.0711L11.7447 28C11.3321 27.5875 11.1003 27.0279 11.1003 26.4445C11.1003 25.861 11.3321 25.3015 11.7447 24.8889C12.1572 24.4764 12.7168 24.2446 13.3002 24.2446C13.8837 24.2446 14.4432 24.4764 14.8558 24.8889L23.8469 33.88L41.1758 16.5667C41.3801 16.3624 41.6226 16.2004 41.8895 16.0898C42.1564 15.9793 42.4424 15.9224 42.7313 15.9224C43.0202 15.9224 43.3063 15.9793 43.5732 16.0898C43.8401 16.2004 44.0826 16.3624 44.2869 16.5667C44.4912 16.771 44.6532 17.0135 44.7638 17.2804C44.8743 17.5473 44.9312 17.8334 44.9312 18.1223C44.9312 18.4111 44.8743 18.6972 44.7638 18.9641C44.6532 19.231 44.4912 19.4735 44.2869 19.6778L44.2558 19.6467Z" fill="#FA163F"/>
</svg>
