<?xml version="1.0" encoding="UTF-8"?>
<svg viewBox="0 0 940 720" xmlns="http://www.w3.org/2000/svg" xmlns:xlink="http://www.w3.org/1999/xlink">
 <g transform="translate(91.881 -228.75)" stroke="#007d00">
  <g transform="matrix(-1 0 0 1 755.44 -.88158)" fill-rule="evenodd">
   <path d="m347.09 896.45c-50.262-34.611-91.991-4.2205-130.2 30.147 49.331 13.402 101.57 19.481 130.2-30.147z"/>
   <path d="m335.01 866.66c-2.2303-60.986-51.521-76.327-101.9-86.474 18.691 47.579 44.995 93.123 101.9 86.474z"/>
   <path d="m257.46 868.97c-47.158-38.735-91.305-11.979-132.29 19.036 48.022 17.523 99.562 27.995 132.29-19.036z"/>
   <path d="m213.73 840.05c29.386-53.485-5.0433-91.95-43.076-126.52-8.3777 50.428-9.1776 103.02 43.076 126.52z"/>
   <path d="m175.56 838.86c-34.695-50.205-84.496-36.613-132.42-18.056 41.356 30.047 88.034 54.282 132.42 18.056z"/>
   <path d="m126.56 794.08c44.894-41.337 24.512-88.766-0.52771-133.65-24.006 45.131-41.517 94.725 0.52771 133.65z"/>
   <path d="m102.71 789.03c-24.513-55.887-75.99-52.016-126.57-42.913 34.886 37.364 76.102 70.035 126.57 42.913z"/>
   <path d="m61.808 735c51.782-32.293 40.55-82.679 24.27-131.43-31.96 39.896-58.366 85.381-24.27 131.43z"/>
   <path d="m43.732 727.44c-13.502-59.514-64.782-65.448-116.17-66.075 27.191 43.287 61.485 83.163 116.17 66.075z"/>
   <path d="m28.354 639.98c55.139-26.152 49.75-77.493 39.159-127.78-36.318 35.974-67.758 78.137-39.159 127.78z"/>
   <path d="m19.165 657c-6.3392-60.697-56.553-72.677-107.51-79.403 21.859 46.21 51.175 89.875 107.51 79.403z"/>
   <path d="m5.1751 540.49c59.589-13.17 65.808-64.417 66.721-115.8-43.438 26.95-83.504 61.021-66.721 115.8z"/>
   <path d="m-6.486 585.25c17.245-58.54-24.627-88.734-69.183-114.35 2.621 51.052 13.107 102.59 69.183 114.35z"/>
   <path d="m28.616 425.5c60.951 3.0522 80.497-44.727 94.963-94.044-49.017 14.507-96.665 36.773-94.963 94.044z"/>
   <path d="m-10.627 491.19c36.629-48.812 7.9621-91.743-24.821-131.32-15.399 48.744-23.6 100.69 24.821 131.32z"/>
   <path d="m55.278 338.67c60.925-3.5151 75.224-53.118 84.307-103.7-47.174 19.69-92.154 46.948-84.307 103.7z"/>
   <path d="m16.39 391.33c45.777-40.357 26.425-88.215 2.3613-133.63-24.976 44.602-43.555 93.805-2.3613 133.63z"/>
  </g>
  <path d="m347.09 896.45c-50.262-34.611-91.991-4.2205-130.2 30.147 49.331 13.402 101.57 19.481 130.2-30.147z" fill-rule="evenodd"/>
  <path d="m335.01 866.66c-2.2303-60.986-51.521-76.327-101.9-86.474 18.691 47.579 44.995 93.123 101.9 86.474z" fill-rule="evenodd"/>
  <path d="m257.46 868.97c-47.158-38.735-91.305-11.979-132.29 19.036 48.022 17.523 99.562 27.995 132.29-19.036z" fill-rule="evenodd"/>
  <path d="m213.73 840.05c29.386-53.485-5.0433-91.95-43.076-126.52-8.3777 50.428-9.1776 103.02 43.076 126.52z" fill-rule="evenodd"/>
  <path d="m175.56 838.86c-34.695-50.205-84.496-36.613-132.42-18.056 41.356 30.047 88.034 54.282 132.42 18.056z" fill-rule="evenodd"/>
  <path d="m126.56 794.08c44.894-41.337 24.512-88.766-0.52771-133.65-24.006 45.131-41.517 94.725 0.52771 133.65z" fill-rule="evenodd"/>
  <path d="m102.71 789.03c-24.513-55.887-75.99-52.016-126.57-42.913 34.886 37.364 76.102 70.035 126.57 42.913z" fill-rule="evenodd"/>
  <path d="m61.808 735c51.782-32.293 40.55-82.679 24.27-131.43-31.96 39.896-58.366 85.381-24.27 131.43z" fill-rule="evenodd"/>
  <path d="m43.732 727.44c-13.502-59.514-64.782-65.448-116.17-66.075 27.191 43.287 61.485 83.163 116.17 66.075z" fill-rule="evenodd"/>
  <path d="m28.354 639.98c55.139-26.152 49.75-77.493 39.159-127.78-36.318 35.974-67.758 78.137-39.159 127.78z" fill-rule="evenodd"/>
  <path d="m19.165 657c-6.3392-60.697-56.553-72.677-107.51-79.403 21.859 46.21 51.175 89.875 107.51 79.403z" fill-rule="evenodd"/>
  <path d="m5.1751 540.49c59.589-13.17 65.808-64.417 66.721-115.8-43.438 26.95-83.504 61.021-66.721 115.8z" fill-rule="evenodd"/>
  <path d="m-6.486 585.25c17.245-58.54-24.627-88.734-69.183-114.35 2.621 51.052 13.107 102.59 69.183 114.35z" fill-rule="evenodd"/>
  <path d="m28.616 425.5c60.951 3.0522 80.497-44.727 94.963-94.044-49.017 14.507-96.665 36.773-94.963 94.044z" fill-rule="evenodd"/>
  <path d="m-10.627 491.19c36.629-48.812 7.9621-91.743-24.821-131.32-15.399 48.744-23.6 100.69 24.821 131.32z" fill-rule="evenodd"/>
  <path d="m55.278 338.67c60.925-3.5151 75.224-53.118 84.307-103.7-47.174 19.69-92.154 46.948-84.307 103.7z" fill-rule="evenodd"/>
  <path d="m16.39 391.33c45.777-40.357 26.425-88.215 2.3613-133.63-24.976 44.602-43.555 93.805-2.3613 133.63z" fill-rule="evenodd"/>
  <path transform="matrix(1.3462 0 0 1.0294 -97.05 -48.372)" d="m365.68 905.89a13.132 17.173 0 1 1 -26.264 0 13.132 17.173 0 1 1 26.264 0z" stroke-linecap="round" stroke-width=".84947"/>
 </g>
</svg>
