<svg width="20" height="22" viewBox="0 0 20 22" fill="none" xmlns="http://www.w3.org/2000/svg">
<path d="M18.6716 21.0213C18.5033 21.0213 18.3349 20.9534 18.2099 20.8206L13.8746 16.0557C13.6367 15.8009 13.6489 15.4007 13.904 15.1614C14.1571 14.9229 14.5571 14.9345 14.7981 15.1908L19.1336 19.9557C19.3714 20.2105 19.3592 20.6105 19.1042 20.8498C18.9821 20.964 18.8278 21.0213 18.6716 21.0213Z" fill="#2C363F"/>
<path d="M8.84278 18.4646C3.9668 18.4646 0 14.4968 0 9.62085C0 4.74486 3.96705 0.77832 8.84278 0.77832C13.7198 0.77832 17.6866 4.74511 17.6866 9.6211C17.6866 14.4971 13.7198 18.4646 8.84278 18.4646ZM8.84278 2.2659C4.78702 2.2659 1.48758 5.56534 1.48758 9.6211C1.48758 13.6769 4.78702 16.9753 8.84278 16.9753C12.8988 16.9753 16.1972 13.6769 16.1972 9.6211C16.1972 5.56534 12.8988 2.2659 8.84278 2.2659Z" fill="#2C363F"/>
</svg>
