<svg width="13" height="13" viewBox="0 0 13 13" fill="none" xmlns="http://www.w3.org/2000/svg">
<path d="M6.50023 0.0888672C2.95478 0.0888672 0.0888672 2.95478 0.0888672 6.50023C0.0888672 10.0457 2.95478 12.9116 6.50023 12.9116C10.0457 12.9116 12.9116 10.0457 12.9116 6.50023C12.9116 2.95478 10.0457 0.0888672 6.50023 0.0888672ZM9.6025 5.17069L5.80591 8.9525C5.68773 9.07069 5.54 9.12978 5.39228 9.12978C5.24455 9.12978 5.08205 9.07069 4.97864 8.9525L3.1025 7.09114C2.86614 6.85478 2.86614 6.48546 3.1025 6.24909C3.33887 6.01273 3.70819 6.01273 3.94455 6.24909L5.39228 7.69682L8.76046 4.32864C8.99682 4.09228 9.36614 4.09228 9.6025 4.32864C9.82409 4.565 9.82409 4.94909 9.6025 5.17069Z" fill="#4CBB17"/>
</svg>
