<svg width="15" height="12" viewBox="0 0 15 12" fill="none" xmlns="http://www.w3.org/2000/svg">
<path fill-rule="evenodd" clip-rule="evenodd" d="M14.1351 1.36501C14.2515 1.48112 14.3439 1.61906 14.4069 1.77092C14.4699 1.92278 14.5023 2.08559 14.5023 2.25001C14.5023 2.41442 14.4699 2.57723 14.4069 2.72909C14.3439 2.88095 14.2515 3.01889 14.1351 3.13501L6.63511 10.635C6.519 10.7514 6.38106 10.8438 6.2292 10.9068C6.07734 10.9698 5.91453 11.0022 5.75011 11.0022C5.5857 11.0022 5.42289 10.9698 5.27103 10.9068C5.11917 10.8438 4.98123 10.7514 4.86511 10.635L1.11511 6.88501C0.998895 6.76879 0.906704 6.63081 0.843806 6.47897C0.780908 6.32712 0.748535 6.16437 0.748535 6.00001C0.748535 5.83565 0.780908 5.6729 0.843806 5.52105C0.906704 5.3692 0.998895 5.23123 1.11511 5.11501C1.23133 4.99879 1.36931 4.9066 1.52116 4.8437C1.673 4.7808 1.83575 4.74843 2.00011 4.74843C2.16447 4.74843 2.32723 4.7808 2.47907 4.8437C2.63092 4.9066 2.76889 4.99879 2.88511 5.11501L5.75011 7.98251L12.3651 1.36501C12.4812 1.2486 12.6192 1.15624 12.771 1.09322C12.9229 1.03021 13.0857 0.997772 13.2501 0.997772C13.4145 0.997772 13.5773 1.03021 13.7292 1.09322C13.8811 1.15624 14.019 1.2486 14.1351 1.36501Z" fill="#FA163F"/>
</svg>
