<svg width="13" height="13" viewBox="0 0 13 13" fill="none" xmlns="http://www.w3.org/2000/svg">
<path d="M6.50007 0.108398C2.97004 0.108398 0.108398 2.97004 0.108398 6.50009C0.108398 10.0301 2.97004 12.8918 6.50007 12.8918C10.0301 12.8918 12.8918 10.0301 12.8918 6.50009C12.8918 2.97004 10.0301 0.108398 6.50007 0.108398ZM9.79283 10.1909L6.50007 6.89818L3.20731 10.1909C3.20731 10.1909 2.38131 9.68962 5.79397 6.19206L2.49903 2.89712C2.49903 2.89712 3.0005 2.0707 6.50007 5.48587C9.99964 2.0707 10.5011 2.89712 10.5011 2.89712L7.20619 6.19206C10.6188 9.68962 9.79283 10.1909 9.79283 10.1909Z" fill="#FF6E05"/>
</svg>
