<svg width="22" height="22" viewBox="0 0 22 22" fill="none" xmlns="http://www.w3.org/2000/svg">
<path d="M12.4595 9.96666L12.4684 2.3741C12.4684 2.04123 12.3361 1.72198 12.1007 1.4866C11.8654 1.25123 11.5461 1.11899 11.2132 1.11899C10.8804 1.11899 10.5611 1.25122 10.3257 1.4866C10.0904 1.72198 9.95813 2.04123 9.95813 2.3741L9.96697 9.96666L2.37441 9.95782C2.04153 9.95782 1.72229 10.0901 1.48691 10.3254C1.25153 10.5608 1.11929 10.8801 1.11929 11.2129C1.11929 11.5458 1.25153 11.8651 1.48691 12.1004C1.72229 12.3358 2.04153 12.4681 2.37441 12.4681L9.96697 12.4592L9.95813 20.0518C9.95745 20.2168 9.98946 20.3803 10.0523 20.5329C10.1151 20.6855 10.2076 20.8241 10.3242 20.9408C10.4409 21.0575 10.5796 21.1499 10.7321 21.2127C10.8847 21.2756 11.0482 21.3076 11.2132 21.3069C11.3783 21.3076 11.5418 21.2756 11.6944 21.2127C11.8469 21.1499 11.9856 21.0575 12.1023 20.9408C12.2189 20.8241 12.3114 20.6855 12.3742 20.5329C12.437 20.3803 12.469 20.2168 12.4684 20.0518L12.4595 12.4592L20.0521 12.4681C20.2171 12.4687 20.3806 12.4367 20.5332 12.3739C20.6858 12.3111 20.8244 12.2186 20.9411 12.1019C21.0578 11.9853 21.1502 11.8466 21.213 11.6941C21.2759 11.5415 21.3079 11.378 21.3072 11.2129C21.3079 11.0479 21.2759 10.8844 21.213 10.7318C21.1502 10.5792 21.0578 10.4406 20.9411 10.3239C20.8244 10.2072 20.6858 10.1148 20.5332 10.052C20.3806 9.98915 20.2171 9.95715 20.0521 9.95783L12.4595 9.96666Z" fill="white"/>
</svg>
